<?xml version="1.0" standalone="no"?>
<!DOCTYPE svg PUBLIC "-//W3C//DTD SVG 20010904//EN"
 "http://www.w3.org/TR/2001/REC-SVG-20010904/DTD/svg10.dtd">
<svg version="1.0" xmlns="http://www.w3.org/2000/svg"
 width="540.000000pt" height="568.000000pt" viewBox="0 0 540.000000 568.000000"
 preserveAspectRatio="xMidYMid meet">

<g transform="translate(0.000000,568.000000) scale(0.100000,-0.100000)"
fill="#000000" stroke="none">
<path d="M1510 5656 c-176 -41 -294 -102 -414 -215 -328 -311 -344 -839 -35
-1165 43 -45 96 -95 119 -111 l40 -28 -37 -17 c-78 -35 -91 -58 -306 -548
l-205 -467 -289 -197 c-158 -109 -302 -213 -319 -232 -73 -84 -69 -221 9 -304
54 -58 151 -83 227 -59 57 18 703 459 734 501 13 17 68 133 122 258 54 126
101 228 104 228 3 0 62 -249 132 -552 70 -304 144 -620 163 -703 l36 -150 14
-505 c7 -283 18 -520 24 -538 5 -19 19 -49 30 -68 41 -69 555 -696 594 -725
46 -33 123 -59 177 -59 20 0 61 7 90 16 138 41 223 155 224 300 0 59 -4 81
-29 130 -17 32 -130 183 -251 334 l-222 275 -11 439 c-6 242 -8 442 -5 445 5
6 188 51 190 48 1 -1 16 -189 33 -417 38 -502 44 -547 75 -608 23 -43 533
-631 663 -764 91 -92 190 -123 302 -94 155 40 250 169 239 325 -3 37 -14 85
-27 111 -12 26 -142 182 -306 367 -218 248 -285 330 -289 355 -3 18 -19 222
-37 453 -30 412 -32 424 -79 635 -71 317 -69 287 -23 299 170 47 406 120 426
134 14 9 33 34 43 57 20 46 23 46 119 0 122 -58 166 -111 309 -368 181 -325
259 -435 413 -583 151 -145 241 -199 600 -354 260 -113 305 -139 409 -238 77
-73 83 -77 93 -58 6 11 11 39 11 62 0 38 -5 47 -68 108 -92 90 -189 149 -405
243 -254 111 -418 197 -520 274 -153 115 -283 277 -428 534 -156 276 -190 330
-247 391 -67 74 -138 121 -213 144 -88 27 -78 12 -134 206 l-16 57 -58 11
c-65 13 -62 11 -404 251 -182 128 -231 170 -215 186 3 2 129 -83 282 -190 152
-107 291 -199 309 -205 41 -13 747 -64 808 -58 177 16 261 236 141 369 -63 70
-81 74 -427 98 -170 11 -324 23 -342 26 -20 3 -182 111 -460 306 -235 166
-448 312 -472 325 -28 15 -62 23 -93 23 l-48 0 36 72 c103 205 112 470 22 685
-75 181 -221 340 -393 426 -112 56 -211 79 -350 83 -82 2 -150 -2 -185 -10z
m266 -297 c88 -15 205 -56 257 -89 90 -57 180 -233 207 -403 25 -155 -4 -360
-63 -448 l-23 -34 -424 -82 -425 -82 -39 37 c-144 138 -236 337 -256 550 -17
187 22 316 125 410 60 55 132 88 280 127 101 27 256 33 361 14z m600 -1489
c23 -12 50 -32 58 -45 24 -37 97 -351 90 -383 -11 -45 -32 -79 -62 -101 -19
-13 -172 -54 -454 -122 -472 -113 -472 -113 -538 -53 -37 33 -39 40 -79 207
-47 196 -45 227 15 283 29 28 54 37 211 74 98 23 284 68 413 100 129 32 250
58 269 59 19 1 54 -8 77 -19z"/>
<path d="M1875 3761 c-220 -54 -410 -103 -422 -109 -39 -21 -63 -62 -63 -106
1 -61 65 -314 87 -344 11 -15 37 -33 59 -41 37 -13 57 -9 444 83 223 53 417
102 433 108 45 18 77 64 77 111 0 57 -62 309 -84 342 -19 29 -72 56 -108 54
-13 -1 -203 -45 -423 -98z"/>
<path d="M2798 4347 c-60 -17 -108 -33 -108 -36 1 -6 434 -312 451 -319 13 -5
-78 289 -98 316 -20 29 -97 73 -123 71 -8 0 -63 -15 -122 -32z"/>
</g>
</svg>
