<?xml version="1.0" standalone="no"?>
<!DOCTYPE svg PUBLIC "-//W3C//DTD SVG 20010904//EN"
 "http://www.w3.org/TR/2001/REC-SVG-20010904/DTD/svg10.dtd">
<svg version="1.0" xmlns="http://www.w3.org/2000/svg"
 width="2105.000000pt" height="2117.000000pt" viewBox="0 0 2105.000000 2117.000000"
 preserveAspectRatio="xMidYMid meet">

<g transform="translate(0.000000,2117.000000) scale(0.100000,-0.100000)"
fill="#000000" stroke="none">
<path d="M8076 21118 c-8 -13 -31 -60 -51 -105 -31 -68 -42 -83 -64 -87 -175
-33 -193 -39 -212 -70 -10 -17 -19 -38 -19 -45 0 -8 37 -50 83 -93 l83 -77
-14 -103 c-24 -179 2 -199 153 -118 l97 52 98 -42 c54 -23 109 -40 121 -38 12
2 31 15 42 30 l20 27 -22 101 -21 102 29 36 c16 21 41 48 56 62 41 38 67 87
60 110 -10 31 -50 46 -155 59 -52 7 -95 13 -96 14 -1 1 -23 40 -49 87 -25 47
-54 93 -62 102 -22 25 -60 22 -77 -4z m75 -255 c33 -55 58 -73 107 -73 47 0
52 -8 21 -36 -37 -33 -49 -66 -39 -110 5 -21 10 -42 10 -46 0 -14 -29 -8 -67
12 -40 21 -61 19 -105 -11 -42 -30 -49 -25 -42 32 7 49 6 51 -36 94 -23 23
-38 45 -33 48 4 2 28 8 53 12 57 9 65 16 80 70 7 25 16 45 20 45 5 0 18 -17
31 -37z"/>
<path d="M13131 20950 c-39 -33 -77 -60 -84 -60 -7 0 -41 9 -77 20 -90 27
-128 26 -141 -4 -9 -20 -6 -40 21 -113 l32 -90 -51 -78 c-28 -43 -51 -83 -51
-89 0 -6 7 -22 16 -34 15 -22 22 -23 117 -21 l102 2 32 -49 c56 -88 72 -104
104 -104 34 0 47 22 74 123 10 37 23 71 29 76 6 4 45 21 86 36 93 35 100 41
100 74 0 31 -20 52 -101 105 l-57 37 -7 99 c-3 55 -12 103 -18 108 -35 28 -54
23 -126 -38z m39 -170 c0 -47 2 -51 40 -76 22 -15 38 -30 35 -33 -4 -3 -25
-13 -48 -21 -34 -13 -44 -23 -57 -57 -8 -23 -18 -45 -22 -48 -3 -4 -26 5 -51
19 -25 15 -59 26 -80 26 -21 0 -37 2 -37 4 0 2 12 26 26 53 25 49 25 50 8 92
-9 23 -15 44 -13 46 2 2 25 -2 52 -8 45 -10 49 -9 90 21 23 17 45 31 50 32 4
0 7 -22 7 -50z"/>
<path d="M16540 20598 l-134 -181 -217 7 c-216 6 -218 6 -238 -16 -12 -12 -21
-30 -21 -41 0 -10 58 -98 130 -196 l130 -178 -70 -202 c-39 -111 -70 -210 -70
-220 0 -10 9 -26 21 -37 21 -19 23 -18 236 54 l214 74 122 -93 c67 -51 147
-113 177 -136 64 -50 90 -53 119 -17 20 25 21 39 21 240 l0 213 185 126 c180
122 185 127 185 160 0 25 -6 38 -22 49 -13 7 -108 39 -213 71 -104 31 -195 62
-201 68 -7 7 -38 98 -69 202 -32 105 -64 200 -71 213 -10 15 -24 22 -47 22
-31 0 -41 -10 -167 -182z m204 -160 c26 -84 51 -163 56 -175 7 -18 41 -32 175
-74 91 -29 165 -56 165 -60 0 -3 -59 -48 -130 -99 -72 -50 -137 -102 -145
-113 -12 -17 -15 -57 -15 -189 0 -93 -3 -168 -6 -168 -4 0 -67 45 -141 100
-102 76 -142 100 -165 100 -17 0 -95 -21 -174 -47 -79 -25 -147 -43 -150 -40
-4 4 19 79 50 167 32 89 56 167 53 174 -3 8 -51 75 -106 149 -56 75 -101 139
-101 143 0 4 77 5 171 2 154 -5 172 -3 193 13 13 10 66 75 117 144 51 69 96
125 99 125 4 0 28 -69 54 -152z"/>
<path d="M4275 20617 c-8 -13 -49 -188 -90 -388 -41 -200 -79 -373 -84 -385
-7 -15 -101 -59 -365 -169 -196 -81 -365 -154 -376 -162 -27 -19 -25 -59 3
-86 12 -13 171 -105 352 -206 182 -100 334 -187 339 -191 5 -5 24 -188 43
-406 19 -222 38 -403 44 -411 7 -7 26 -13 44 -13 29 0 68 32 330 270 205 187
302 269 313 266 47 -15 739 -166 759 -166 31 0 63 34 63 66 0 14 -11 49 -24
77 -13 29 -85 184 -160 346 -75 161 -136 300 -136 309 0 8 85 160 189 337 105
176 194 332 199 345 25 68 -7 73 -249 44 -463 -56 -535 -64 -560 -64 -21 0
-67 49 -264 278 -132 152 -252 289 -267 305 -34 35 -81 37 -103 4z m315 -457
c111 -129 214 -246 228 -258 29 -28 -6 -30 420 29 156 21 285 39 287 39 18 0
4 -26 -268 -498 -65 -112 -65 -114 -52 -150 7 -20 72 -162 144 -315 72 -153
131 -283 131 -288 0 -16 -32 -10 -356 67 -203 48 -325 72 -336 67 -9 -4 -123
-106 -253 -226 -129 -120 -241 -220 -249 -223 -16 -6 -16 -6 -51 376 -15 157
-30 294 -34 305 -5 13 -123 86 -310 194 -165 95 -301 177 -301 181 0 4 75 40
168 80 92 40 227 99 300 131 73 33 139 59 148 59 8 0 19 10 24 23 5 12 34 155
65 317 57 299 70 350 84 334 4 -5 99 -115 211 -244z"/>
<path d="M19277 20178 c-12 -10 -18 -37 -23 -110 l-7 -97 -84 -52 c-47 -28
-87 -58 -90 -65 -3 -7 -1 -26 4 -41 8 -23 24 -33 94 -60 46 -18 87 -33 91 -35
4 -2 15 -39 24 -83 18 -85 43 -125 78 -125 14 0 43 26 85 76 l63 76 98 -7 c91
-7 99 -6 119 14 12 12 21 29 21 38 0 9 -23 52 -51 95 l-51 78 37 86 c41 97 41
125 -5 144 -25 10 -40 9 -99 -9 -38 -12 -77 -21 -87 -21 -9 0 -43 25 -75 55
-46 44 -64 55 -91 55 -19 0 -42 -6 -51 -12z m116 -204 c29 -24 36 -26 94 -20
l64 7 -16 -37 c-20 -49 -19 -84 5 -114 28 -36 25 -40 -23 -40 -36 0 -49 -6
-77 -35 -19 -19 -37 -35 -41 -35 -4 0 -13 17 -19 38 -16 47 -36 70 -77 87 -30
13 -45 35 -24 35 5 0 23 13 40 29 25 23 31 37 31 70 0 23 3 41 6 41 3 0 20
-12 37 -26z"/>
<path d="M1623 19615 c-46 -30 -89 -55 -98 -55 -8 0 -58 18 -110 40 -103 45
-119 44 -151 -5 -15 -24 -15 -31 11 -125 l28 -99 -66 -76 c-73 -83 -84 -121
-49 -165 15 -18 32 -22 125 -29 59 -4 109 -9 111 -12 2 -2 29 -45 60 -96 31
-50 64 -94 73 -97 9 -4 31 -2 49 4 29 10 35 19 64 104 18 52 36 99 39 105 4 5
51 21 105 33 81 19 102 28 119 50 30 40 16 65 -75 138 l-80 64 6 113 c7 111 7
113 -18 138 -14 14 -33 25 -43 25 -10 0 -55 -25 -100 -55z m74 -306 c32 -30
42 -45 32 -48 -8 -3 -34 -12 -59 -21 -38 -13 -49 -23 -70 -65 -14 -27 -27 -52
-28 -55 -2 -3 -22 16 -44 43 -39 45 -42 47 -94 47 -30 0 -54 3 -54 6 0 4 16
24 35 45 38 42 42 67 23 130 -6 22 -9 42 -6 44 3 3 28 -3 55 -14 57 -22 84
-19 128 15 l30 24 3 -54 c3 -49 7 -57 49 -97z"/>
<path d="M13270 18895 c-11 -13 -11 -43 -2 -153 7 -76 12 -145 12 -154 0 -9
-51 -59 -114 -112 -178 -150 -175 -163 55 -221 72 -18 135 -37 139 -42 4 -4
29 -63 54 -129 51 -131 69 -164 91 -164 38 0 66 29 135 141 49 80 80 121 94
124 12 2 82 9 156 15 74 6 140 16 147 22 31 25 14 62 -82 175 -52 62 -95 119
-95 128 0 9 14 70 30 135 34 136 36 162 14 184 -25 25 -51 20 -191 -40 l-132
-57 -121 73 c-66 40 -123 77 -126 82 -9 14 -51 9 -64 -7z m231 -223 c36 -23
73 -42 82 -42 9 0 52 16 96 35 80 35 101 41 101 28 0 -5 -9 -45 -20 -91 -11
-46 -20 -93 -20 -106 0 -12 25 -52 55 -89 30 -36 55 -71 55 -76 0 -5 -44 -12
-98 -16 -55 -4 -104 -10 -111 -14 -7 -5 -33 -43 -59 -86 -26 -43 -51 -78 -57
-78 -5 0 -24 37 -42 83 -18 45 -37 88 -43 95 -6 7 -52 23 -103 35 -51 13 -98
26 -104 29 -8 4 15 30 65 71 42 35 81 67 86 72 5 4 8 56 7 114 l-2 107 23 -15
c13 -8 53 -34 89 -56z"/>
<path d="M9977 18692 c-22 -24 -21 -50 8 -221 13 -79 21 -149 17 -155 -4 -6
-56 -58 -117 -116 -128 -121 -125 -117 -125 -151 0 -44 26 -55 208 -84 l173
-28 75 -149 c80 -160 99 -180 152 -162 22 7 41 37 102 156 41 80 77 149 80
151 3 3 77 17 165 32 122 21 165 32 183 48 41 38 30 57 -105 185 l-126 119 28
171 c15 94 25 178 22 186 -4 9 -18 21 -32 28 -24 11 -41 4 -185 -67 l-159 -79
-158 77 c-87 43 -165 77 -174 77 -9 0 -23 -8 -32 -18z m249 -228 c115 -54 120
-55 144 -40 54 35 179 95 183 88 3 -4 -4 -54 -15 -111 -11 -57 -17 -114 -14
-125 3 -12 44 -52 90 -91 78 -65 102 -95 75 -95 -37 0 -207 -24 -220 -31 -10
-5 -40 -54 -69 -109 -28 -56 -57 -99 -63 -97 -6 2 -34 45 -61 95 -28 51 -60
98 -71 106 -11 7 -67 19 -125 26 -58 6 -107 14 -109 16 -3 2 32 42 77 88 45
46 82 92 82 102 -1 11 -9 64 -19 119 -16 88 -18 115 -7 115 2 0 57 -25 122
-56z"/>
<path d="M19541 18283 c-11 -10 -93 -148 -182 -308 -88 -159 -164 -293 -168
-297 -4 -4 -160 -21 -347 -37 -187 -17 -347 -33 -356 -36 -19 -8 -28 -47 -16
-69 5 -9 110 -128 234 -263 154 -170 224 -254 224 -270 0 -12 -31 -162 -70
-333 -38 -171 -70 -321 -70 -333 0 -13 5 -28 12 -35 28 -28 81 -10 381 128
l304 141 298 -176 c164 -96 307 -175 317 -175 41 0 41 27 -2 379 -22 187 -40
342 -40 345 0 3 115 104 255 226 140 121 262 232 271 245 19 29 12 58 -19 73
-12 7 -170 42 -351 80 l-329 68 -132 317 c-73 175 -139 324 -145 332 -17 20
-43 19 -69 -2z m140 -448 c56 -127 107 -248 114 -270 l12 -40 254 -51 c140
-28 271 -54 292 -58 20 -3 37 -10 37 -14 0 -4 -99 -92 -219 -197 -121 -104
-224 -200 -229 -212 -8 -16 -1 -94 29 -304 44 -322 42 -299 28 -299 -5 0 -123
65 -261 145 -138 80 -258 145 -266 145 -9 0 -137 -57 -285 -126 -148 -69 -271
-123 -274 -120 -3 3 25 134 62 292 49 209 65 294 59 310 -5 13 -85 105 -178
206 -227 245 -220 237 -215 242 2 2 136 17 298 32 219 21 299 32 312 44 10 8
77 119 149 245 165 287 160 279 171 268 5 -5 54 -112 110 -238z"/>
<path d="M15397 17808 c-12 -9 -21 -41 -30 -108 l-12 -95 -75 -42 c-135 -77
-140 -102 -32 -157 106 -54 105 -53 118 -151 20 -148 56 -161 154 -56 l65 70
98 -12 c69 -8 103 -8 115 0 30 18 25 56 -18 128 -22 39 -40 78 -40 89 0 10 18
51 40 91 22 40 40 81 40 92 0 44 -45 53 -170 32 l-65 -10 -65 71 c-66 72 -89
83 -123 58z m114 -204 c22 -23 29 -26 77 -21 28 3 52 2 52 -3 0 -5 -8 -25 -17
-45 -15 -31 -15 -40 -4 -68 29 -72 29 -71 -22 -64 -42 6 -50 4 -82 -24 -39
-34 -55 -31 -55 11 0 32 -17 53 -61 75 -37 20 -37 29 1 45 32 13 60 55 60 88
0 39 18 41 51 6z"/>
<path d="M7595 17311 c-6 -5 -144 -82 -307 -171 l-298 -162 -309 162 c-330
172 -354 180 -378 130 -10 -21 -2 -81 49 -374 l61 -348 -244 -244 c-134 -134
-249 -244 -256 -244 -38 0 -31 -73 8 -85 12 -4 174 -31 360 -59 186 -29 340
-54 342 -57 2 -2 69 -137 148 -299 79 -162 152 -307 162 -322 18 -28 49 -36
74 -20 7 4 82 150 167 324 103 212 160 318 173 322 10 2 155 26 323 51 168 25
322 51 342 56 38 10 58 33 58 66 0 10 -106 124 -251 268 l-250 250 6 40 c3 22
28 171 56 330 28 160 51 304 52 322 2 53 -56 95 -88 64z m-1051 -250 c310
-165 405 -211 441 -211 28 0 96 31 284 130 136 72 253 130 259 130 8 0 10 -9
7 -22 -19 -91 -95 -529 -95 -555 0 -28 24 -54 210 -234 116 -111 207 -206 203
-210 -5 -4 -132 -23 -283 -43 -151 -20 -285 -41 -297 -46 -17 -7 -60 -84 -155
-275 -73 -146 -136 -265 -140 -265 -4 0 -66 117 -138 260 -104 206 -136 263
-158 274 -16 8 -149 31 -298 51 -148 20 -273 40 -278 45 -8 8 48 64 302 301
81 75 122 121 122 135 0 11 -22 144 -50 295 -27 151 -50 277 -50 282 0 15 26
6 114 -42z"/>
<path d="M1163 16876 c-11 -13 -49 -124 -87 -247 -37 -123 -73 -229 -79 -236
-7 -6 -118 -43 -247 -82 -145 -44 -240 -77 -247 -88 -21 -28 -15 -67 15 -95
15 -14 110 -85 211 -159 l183 -133 -7 -241 c-4 -133 -4 -251 -1 -262 7 -21 45
-43 74 -43 9 1 105 66 212 145 107 80 202 145 212 145 9 0 114 -34 233 -75
120 -41 230 -75 246 -75 19 0 34 8 45 25 16 24 13 34 -66 269 l-82 244 156
206 c86 113 156 210 156 216 0 19 -23 59 -39 67 -9 4 -128 10 -266 13 l-250 5
-132 195 c-73 107 -142 203 -154 212 -30 25 -64 22 -86 -6z m196 -356 c57 -80
110 -151 119 -157 11 -10 71 -13 214 -13 152 0 198 -3 198 -12 0 -7 -52 -82
-115 -167 -77 -103 -115 -162 -115 -180 0 -14 25 -103 55 -197 30 -95 55 -175
55 -178 0 -12 -26 -5 -190 54 -92 33 -179 60 -193 60 -17 0 -73 -35 -164 -103
-77 -57 -151 -112 -167 -122 l-28 -18 7 204 c6 164 4 207 -7 221 -7 10 -82 69
-166 131 -111 84 -149 117 -140 124 11 8 233 80 355 115 32 9 34 12 89 186 62
194 72 218 83 206 4 -5 54 -74 110 -154z"/>
<path d="M12598 16218 c-8 -7 -75 -89 -148 -182 l-133 -168 -46 6 c-25 3 -127
8 -226 12 -163 6 -182 5 -198 -10 -9 -10 -17 -24 -17 -32 0 -9 56 -98 125
-200 l124 -185 -18 -47 c-11 -26 -46 -116 -80 -200 -62 -156 -70 -189 -49
-210 19 -19 43 -15 232 38 98 27 192 52 210 55 28 6 45 -5 201 -134 154 -128
173 -141 205 -139 33 3 35 5 42 48 3 25 7 124 7 221 1 153 3 180 19 197 9 11
89 66 177 122 88 56 166 109 173 118 16 20 16 67 -1 80 -6 6 -100 43 -207 82
-107 40 -200 77 -206 84 -12 12 -104 371 -104 405 0 42 -49 65 -82 39z m8
-205 c3 -16 25 -95 48 -177 l41 -149 168 -59 c92 -33 167 -63 167 -67 0 -3
-63 -46 -141 -96 -78 -49 -144 -97 -149 -105 -4 -8 -10 -91 -13 -183 -3 -93
-7 -171 -11 -174 -3 -3 -63 43 -133 101 -70 59 -138 109 -149 112 -12 3 -95
-15 -185 -39 -117 -32 -165 -41 -167 -32 -2 6 25 82 58 168 43 111 59 163 54
179 -3 13 -47 83 -97 155 -50 73 -88 136 -85 139 3 3 74 1 158 -5 83 -6 163
-11 176 -11 19 0 46 28 131 135 59 74 110 135 115 135 5 0 11 -12 14 -27z"/>
<path d="M16538 16063 c-10 -12 -30 -114 -58 -303 -23 -157 -48 -295 -54 -308
-8 -16 -92 -62 -284 -157 -150 -74 -275 -142 -278 -150 -15 -37 14 -57 281
-186 149 -72 274 -134 278 -138 4 -5 28 -143 53 -307 42 -274 48 -301 70 -321
15 -14 31 -20 42 -16 9 3 114 102 233 221 l217 215 311 -53 c302 -52 311 -53
331 -35 21 19 26 55 10 71 -11 11 -186 330 -248 452 l-37 73 28 52 c15 29 80
153 143 275 107 207 114 225 101 245 -8 13 -27 23 -44 25 -16 2 -159 -20 -318
-48 l-290 -50 -208 207 c-115 115 -213 218 -218 231 -10 26 -40 29 -61 5z
m272 -352 c90 -97 172 -181 183 -187 13 -8 75 0 250 33 227 42 277 48 277 38
0 -3 -52 -104 -115 -224 -75 -143 -115 -229 -115 -250 0 -19 27 -82 74 -169
103 -194 158 -303 153 -308 -2 -3 -118 16 -256 41 -181 33 -257 43 -270 35
-10 -5 -94 -88 -187 -185 -92 -96 -171 -172 -175 -168 -4 5 -22 114 -39 243
-17 129 -35 245 -40 257 -7 16 -75 55 -240 138 -126 63 -230 118 -230 123 0 4
101 58 225 119 140 71 230 121 238 135 8 13 29 131 47 266 21 154 37 242 44
241 6 -1 85 -80 176 -178z"/>
<path d="M4381 15115 l-95 -54 -92 49 c-103 56 -136 62 -160 26 -14 -23 -14
-34 1 -133 l16 -108 -81 -75 c-60 -56 -80 -81 -80 -101 0 -49 18 -59 135 -75
60 -9 112 -18 115 -20 3 -3 28 -47 56 -97 36 -65 59 -95 77 -101 36 -13 48 0
104 106 26 50 52 92 58 94 5 2 54 10 108 17 167 24 180 62 57 177 l-80 75 15
100 c8 55 15 106 15 113 0 17 -45 62 -62 61 -7 0 -55 -25 -107 -54z m-167
-177 c47 -23 47 -23 150 21 5 2 6 -20 2 -53 -6 -54 -5 -57 31 -97 40 -44 35
-59 -19 -59 -34 0 -62 -26 -84 -77 l-16 -38 -16 24 c-40 57 -80 91 -108 91
-16 0 -36 5 -44 10 -12 8 -8 16 23 48 38 39 39 40 32 96 -4 31 -5 56 -1 56 3
0 26 -10 50 -22z"/>
<path d="M20663 14399 l-70 -71 -92 12 c-81 10 -95 10 -116 -4 -14 -9 -25 -24
-25 -33 0 -9 20 -53 45 -98 l45 -83 -41 -97 -41 -98 26 -25 25 -26 95 18 95
18 75 -66 c42 -36 81 -66 86 -66 28 0 57 48 64 106 14 122 12 117 79 154 95
51 117 69 117 94 0 28 -7 34 -90 71 -36 16 -71 34 -79 41 -7 7 -21 52 -31 100
-19 91 -40 124 -80 124 -9 0 -49 -32 -87 -71z m57 -177 c0 -39 18 -61 60 -73
48 -14 50 -23 11 -44 -43 -22 -71 -62 -71 -102 l0 -35 -36 32 c-34 29 -40 31
-87 25 -55 -8 -55 -10 -25 63 12 30 11 37 -10 72 -12 21 -22 42 -22 45 0 3 21
3 48 0 44 -6 49 -5 81 29 37 38 51 34 51 -12z"/>
<path d="M10396 14080 c-76 -55 -146 -100 -155 -100 -10 0 -82 25 -161 55
-153 58 -189 65 -214 39 -23 -23 -21 -40 29 -208 25 -84 45 -158 45 -165 0 -6
-44 -66 -98 -134 -107 -132 -122 -155 -122 -185 0 -41 25 -47 209 -52 l176 -5
102 -150 c113 -165 135 -183 181 -148 20 15 37 55 79 177 29 88 54 160 56 163
2 2 78 24 168 49 176 49 209 67 209 115 0 25 -18 42 -140 134 -77 58 -140 111
-141 118 -2 54 3 251 8 289 5 43 3 50 -25 78 -17 16 -39 30 -49 30 -10 -1 -81
-46 -157 -100z m92 -208 c-4 -79 -2 -125 6 -139 6 -11 49 -51 96 -87 47 -37
86 -71 88 -76 3 -8 -56 -28 -183 -62 -22 -6 -45 -16 -51 -22 -7 -6 -28 -62
-49 -123 -20 -62 -40 -113 -45 -113 -4 0 -36 43 -70 96 -35 52 -71 99 -81 105
-10 5 -69 9 -133 9 -63 0 -117 3 -120 8 -2 4 23 45 55 91 89 123 87 105 34
289 -10 34 -15 66 -11 70 4 3 55 -10 114 -31 59 -20 114 -37 122 -37 8 0 62
32 120 70 58 38 107 70 109 70 2 0 1 -53 -1 -118z"/>
<path d="M3222 13019 l-132 -111 -169 42 c-182 45 -194 45 -221 -4 -12 -24 -8
-37 54 -183 36 -87 66 -164 66 -170 0 -15 -157 -270 -170 -278 -17 -10 -11
-61 9 -79 16 -14 29 -15 112 -7 52 6 130 13 174 16 l80 7 95 -114 c128 -152
134 -158 169 -158 44 0 58 27 101 201 21 83 42 155 47 160 4 4 73 33 153 64
80 31 153 64 163 72 9 9 17 28 17 43 0 41 -21 60 -167 150 -85 51 -133 87
-133 98 -2 92 -30 335 -40 347 -7 8 -27 15 -44 15 -26 0 -57 -20 -164 -111z
m92 -141 c3 -18 7 -69 10 -113 3 -45 8 -88 11 -97 4 -9 49 -42 101 -73 52 -31
94 -61 92 -67 -2 -6 -47 -27 -100 -47 -54 -20 -103 -42 -110 -49 -7 -7 -24
-63 -38 -124 -14 -61 -30 -113 -36 -115 -6 -2 -47 40 -90 93 l-79 96 -117 -6
c-78 -4 -118 -3 -118 4 0 5 27 52 60 103 33 52 60 103 60 114 0 11 -18 61 -40
111 -22 49 -40 95 -40 102 0 14 12 12 140 -15 47 -10 97 -15 111 -12 13 3 56
33 94 66 39 33 73 60 77 61 4 0 9 -15 12 -32z"/>
<path d="M14240 12720 c-18 -18 -20 -33 -20 -168 l0 -149 -135 -92 c-129 -88
-135 -94 -135 -126 0 -44 7 -48 172 -105 l133 -45 42 -150 c44 -155 56 -175
103 -175 21 0 41 20 115 120 49 66 94 120 100 121 5 1 78 0 161 -1 148 -2 152
-1 168 21 9 13 16 31 16 40 0 9 -38 69 -85 135 -47 65 -85 126 -85 136 0 9 23
78 50 153 28 75 48 145 45 154 -13 41 -43 40 -195 -5 -79 -23 -149 -40 -155
-36 -5 3 -53 40 -105 82 -153 123 -156 124 -190 90z m190 -235 c90 -64 101
-65 220 -31 47 14 86 23 88 21 2 -2 -10 -46 -27 -97 -17 -51 -31 -101 -31
-111 0 -9 25 -56 55 -102 30 -47 55 -90 55 -96 0 -6 -40 -7 -109 -3 l-109 7
-67 -87 c-38 -47 -71 -86 -75 -86 -4 0 -20 46 -36 103 l-30 102 -99 36 c-55
20 -101 41 -103 47 -2 6 32 34 75 63 43 29 81 57 85 63 4 6 8 52 8 103 0 85 5
123 17 123 3 0 40 -25 83 -55z"/>
<path d="M18296 12678 c-7 -13 -19 -59 -25 -103 -6 -44 -16 -108 -22 -143
l-11 -63 -129 -64 c-74 -37 -133 -74 -139 -86 -25 -46 -7 -65 129 -134 71 -35
132 -69 136 -75 3 -6 17 -71 29 -145 24 -139 40 -175 78 -175 11 0 64 47 126
111 l107 110 150 -25 c138 -24 150 -24 167 -9 10 9 18 24 18 35 0 10 -30 78
-66 150 l-66 132 67 137 c100 200 91 214 -112 180 -66 -12 -131 -21 -145 -21
-18 0 -49 27 -122 105 -81 87 -102 105 -127 105 -19 0 -33 -8 -43 -22z m311
-289 c43 7 90 15 106 18 38 8 35 -7 -17 -118 l-45 -93 47 -87 c26 -48 43 -91
39 -95 -4 -4 -51 1 -104 10 l-98 18 -77 -84 c-53 -58 -78 -78 -82 -68 -2 8 -9
53 -15 99 -6 46 -16 90 -22 97 -6 8 -49 34 -95 59 -46 25 -84 49 -84 53 0 4
34 25 76 47 106 56 114 67 126 167 5 46 12 89 14 97 3 10 29 -9 79 -59 l73
-73 79 12z"/>
<path d="M608 12418 c-8 -7 -38 -47 -66 -89 l-51 -76 -68 -6 c-37 -4 -86 -7
-109 -7 -43 0 -66 -17 -78 -56 -5 -17 9 -41 65 -108 l71 -87 -26 -92 c-33
-117 -33 -142 -1 -163 24 -16 30 -15 131 21 l106 37 84 -56 c91 -61 122 -68
155 -35 21 21 21 29 16 136 l-5 113 80 47 c58 33 84 55 93 77 24 55 -4 76
-167 121 -62 17 -53 5 -113 165 -23 61 -32 70 -69 70 -18 0 -39 -6 -48 -12z
m32 -259 c0 -31 38 -67 81 -74 22 -4 43 -13 45 -20 3 -7 -9 -34 -25 -61 -22
-34 -31 -60 -31 -91 0 -24 -3 -43 -8 -43 -4 0 -24 11 -44 25 -42 29 -83 32
-135 10 -20 -8 -38 -14 -39 -12 -2 2 1 19 6 38 18 60 12 96 -20 132 -41 48
-38 57 18 57 53 0 68 8 102 59 22 32 24 33 37 15 7 -10 13 -25 13 -35z"/>
<path d="M6433 12164 c-6 -3 -50 -109 -97 -237 -48 -128 -90 -237 -94 -244 -7
-12 -437 -123 -476 -123 -31 0 -46 -19 -46 -57 0 -31 12 -43 194 -187 107 -85
197 -160 201 -166 4 -7 2 -124 -5 -261 -12 -228 -11 -250 4 -274 10 -14 26
-25 39 -25 13 0 115 62 231 140 115 77 212 140 215 140 4 0 108 -40 231 -90
123 -49 237 -90 252 -90 18 0 33 8 44 25 17 27 15 39 -92 414 -13 46 -24 92
-24 102 0 11 72 106 160 212 132 159 160 198 160 224 0 52 -27 63 -150 63 -58
0 -169 3 -247 7 l-142 6 -132 204 c-72 112 -139 208 -149 213 -19 10 -56 12
-77 4z m152 -356 c53 -84 106 -161 117 -170 15 -14 38 -18 92 -18 131 0 326
-13 326 -22 0 -4 -50 -68 -111 -141 -154 -184 -149 -169 -109 -314 59 -217 71
-265 66 -271 -3 -3 -90 28 -192 68 -165 64 -190 71 -218 63 -17 -6 -98 -56
-181 -112 -119 -80 -151 -98 -154 -85 -2 10 2 98 9 196 6 98 9 186 6 196 -4
10 -74 71 -156 136 -83 64 -150 121 -150 126 0 5 17 14 38 19 395 102 367 90
390 159 57 168 115 322 122 322 4 0 52 -69 105 -152z"/>
<path d="M18332 9701 l-40 -88 -92 -18 c-96 -19 -116 -30 -127 -73 -5 -23 2
-34 66 -94 l72 -68 -11 -93 c-19 -152 5 -168 140 -95 l77 42 88 -38 c136 -59
170 -36 141 92 -9 39 -16 80 -16 91 0 11 27 50 60 87 93 103 79 135 -65 154
-89 12 -100 20 -142 105 -34 67 -51 85 -83 85 -24 0 -31 -9 -68 -89z m103
-150 c20 -40 52 -61 92 -61 40 0 43 -17 7 -51 -22 -20 -25 -31 -22 -74 3 -54
2 -55 -54 -31 -34 15 -38 14 -83 -10 l-47 -25 6 45 c7 42 5 48 -30 86 -20 22
-35 42 -33 44 2 1 24 7 49 12 40 8 47 14 65 52 11 23 23 42 27 42 4 0 14 -13
23 -29z"/>
<path d="M15055 9336 c-9 -13 -45 -167 -81 -342 -36 -176 -68 -325 -72 -332
-4 -8 -151 -74 -326 -148 -176 -73 -323 -139 -328 -146 -13 -21 -9 -44 10 -66
9 -10 149 -93 310 -182 162 -90 296 -168 298 -174 2 -6 17 -163 32 -348 19
-220 33 -343 42 -353 7 -8 23 -15 36 -15 26 0 32 6 328 274 109 100 204 184
212 189 7 4 159 -25 350 -68 314 -70 338 -75 360 -60 17 11 24 25 24 46 0 17
-58 155 -141 335 l-141 304 28 48 c15 26 87 148 160 272 165 281 171 294 154
315 -17 21 -45 20 -375 -20 -159 -19 -304 -35 -320 -35 -28 0 -52 25 -237 238
-113 130 -217 249 -231 265 -33 34 -71 36 -92 3z m288 -411 c172 -196 201
-225 226 -225 16 0 141 16 278 35 289 41 308 42 299 18 -4 -9 -70 -125 -146
-258 -77 -133 -140 -250 -140 -260 0 -11 54 -134 119 -275 66 -140 121 -262
123 -270 4 -19 14 -21 -293 50 -141 33 -270 60 -286 60 -24 0 -66 -34 -237
-192 -193 -179 -236 -213 -236 -191 -2 75 -61 587 -69 597 -7 8 -126 80 -266
161 -140 81 -255 150 -255 154 0 4 12 13 28 20 50 23 497 218 513 223 12 5 28
72 68 280 59 304 57 298 69 298 5 0 97 -101 205 -225z"/>
<path d="M3972 9096 l-183 -124 -97 38 c-53 21 -148 59 -210 84 -108 45 -115
46 -138 31 -14 -9 -24 -25 -24 -39 0 -13 25 -113 55 -221 30 -109 55 -203 55
-209 0 -6 -63 -88 -140 -181 -128 -155 -140 -173 -138 -205 3 -35 3 -35 63
-41 33 -4 135 -7 227 -8 l167 -1 24 -32 c14 -18 66 -98 117 -178 51 -80 99
-151 108 -157 9 -7 28 -13 43 -13 14 0 31 6 37 13 5 6 42 100 82 207 39 107
77 200 83 206 9 9 318 89 423 110 24 4 36 36 26 64 -4 10 -85 80 -181 156
l-173 137 6 56 c3 31 8 133 12 226 6 153 5 173 -10 188 -10 9 -25 17 -34 17
-9 0 -99 -56 -200 -124z m144 -123 c-3 -38 -9 -118 -12 -179 l-7 -112 124 -97
c147 -116 155 -123 147 -130 -3 -3 -81 -26 -173 -50 -92 -24 -171 -48 -175
-52 -4 -4 -31 -75 -60 -156 -29 -81 -58 -154 -64 -162 -9 -12 -29 13 -101 126
-49 78 -97 144 -105 149 -8 4 -91 10 -184 13 -93 4 -171 9 -174 11 -2 3 42 62
99 131 57 69 108 135 113 148 6 16 -4 69 -37 187 -24 91 -43 168 -41 171 2 4
78 -22 170 -58 110 -43 172 -62 186 -57 12 3 80 46 151 95 72 49 135 89 140
89 6 0 7 -27 3 -67z"/>
<path d="M12732 8460 l-73 -49 -80 35 c-98 41 -123 43 -146 8 -16 -25 -16 -30
6 -115 l23 -89 -56 -64 c-45 -51 -56 -71 -56 -98 0 -45 26 -68 76 -68 21 0 63
-3 92 -7 l52 -6 51 -83 c47 -79 52 -84 84 -84 40 0 51 14 85 110 13 36 28 70
34 77 6 6 47 18 91 27 82 17 115 38 115 76 0 9 -34 45 -76 80 l-75 62 3 103
c5 154 -23 169 -150 85z m34 -175 c-6 -31 -2 -39 35 -80 l41 -44 -28 -12 c-16
-6 -39 -15 -51 -20 -12 -4 -31 -26 -43 -49 -11 -22 -24 -40 -29 -40 -5 0 -21
16 -35 35 -24 31 -32 35 -72 35 -51 0 -54 10 -18 53 26 30 29 62 13 127 -4 17
6 17 68 -2 39 -11 45 -10 70 9 42 33 56 30 49 -12z"/>
<path d="M8829 8251 c-21 -17 -23 -26 -23 -122 l-1 -103 -64 -37 c-71 -41 -81
-52 -81 -91 0 -33 24 -47 123 -73 37 -10 71 -23 76 -29 5 -6 21 -45 35 -86 33
-89 40 -100 75 -100 31 0 52 20 106 102 l37 57 99 7 c54 3 103 12 108 18 27
34 21 53 -39 125 -33 39 -60 77 -60 84 0 7 9 44 20 82 27 95 26 123 -5 137
-23 10 -64 0 -188 -48 -7 -2 -48 18 -92 46 -43 27 -84 50 -91 50 -6 0 -22 -8
-35 -19z m136 -171 c34 -22 82 -26 120 -8 14 6 27 9 29 7 3 -2 0 -25 -6 -51
-10 -44 -9 -50 17 -90 16 -24 28 -45 27 -48 -1 -3 -23 -7 -49 -10 -40 -4 -51
-10 -68 -37 -11 -18 -25 -32 -30 -33 -6 0 -17 19 -25 42 -13 36 -22 45 -57 58
-23 8 -45 18 -49 22 -3 4 5 27 20 52 15 26 26 60 26 80 0 42 4 43 45 16z"/>
<path d="M6637 7992 c-9 -10 -34 -83 -54 -161 l-38 -143 -131 -52 c-135 -52
-164 -69 -164 -92 0 -36 30 -65 141 -133 80 -50 121 -81 124 -95 2 -12 8 -81
14 -154 5 -73 15 -140 22 -148 6 -8 22 -14 34 -14 25 0 43 12 166 117 47 40
94 73 103 73 9 0 71 -13 136 -30 139 -35 161 -36 183 -12 26 28 21 51 -38 187
-30 69 -55 130 -55 135 0 11 125 216 146 241 20 22 17 56 -6 72 -14 10 -37 11
-87 6 -37 -3 -105 -10 -149 -13 l-81 -7 -97 114 c-113 135 -134 148 -169 109z
m180 -284 l37 -48 103 0 c60 0 103 -4 103 -10 0 -5 -22 -44 -50 -86 -27 -42
-50 -86 -50 -97 0 -11 16 -54 35 -97 33 -73 41 -100 30 -100 -2 0 -43 9 -90
20 -47 11 -96 20 -110 20 -14 0 -51 -23 -90 -55 -37 -30 -71 -55 -75 -55 -5 0
-11 44 -15 98 -4 53 -10 103 -14 110 -4 7 -43 34 -86 60 -43 26 -79 51 -79 56
-1 6 37 25 84 44 47 19 90 38 96 43 7 5 22 53 34 107 12 53 25 101 28 106 5 9
42 -30 109 -116z"/>
<path d="M20029 7661 l-23 -19 24 -152 24 -153 -101 -98 c-118 -113 -126 -126
-110 -160 11 -22 25 -26 167 -49 l155 -25 70 -135 c69 -133 71 -135 106 -138
46 -4 50 2 124 151 l60 122 148 25 c152 26 177 37 177 79 0 9 -50 63 -111 121
l-111 105 22 135 c28 180 28 170 -1 192 l-26 20 -131 -66 c-73 -36 -141 -66
-152 -66 -11 0 -79 29 -150 65 -71 36 -132 65 -134 65 -2 0 -14 -8 -27 -19z
m214 -198 l102 -47 88 48 c49 26 91 45 94 42 3 -3 -3 -51 -13 -107 l-18 -102
40 -36 c22 -20 59 -53 83 -74 23 -21 41 -41 38 -44 -3 -2 -48 -10 -101 -17
-53 -6 -101 -17 -108 -24 -7 -7 -30 -47 -53 -89 -22 -42 -45 -79 -52 -80 -6
-2 -30 32 -54 77 -24 44 -52 86 -64 94 -11 7 -60 18 -108 24 -49 5 -91 13 -95
16 -3 4 27 40 67 80 l73 74 -16 95 c-17 103 -19 117 -11 117 3 0 52 -21 108
-47z"/>
<path d="M471 7086 c-7 -8 -33 -76 -59 -152 l-47 -139 -149 -42 c-146 -41
-172 -53 -176 -83 -5 -37 7 -51 120 -135 66 -49 120 -94 121 -100 0 -5 0 -78
-1 -162 l-2 -152 26 -16 c14 -10 34 -15 44 -13 9 3 71 44 138 91 l120 86 115
-43 c187 -71 187 -71 210 -50 26 24 25 40 -21 194 -45 155 -52 126 65 270 92
113 101 134 80 166 -15 24 -19 24 -169 24 l-154 0 -92 135 c-86 128 -93 135
-124 135 -19 0 -39 -6 -45 -14z m110 -274 c29 -42 57 -80 63 -84 6 -4 57 -8
113 -8 57 0 105 -4 108 -10 3 -6 -19 -44 -49 -86 -34 -46 -56 -87 -56 -103 0
-14 10 -65 22 -113 12 -48 20 -90 16 -93 -3 -3 -43 8 -89 25 -45 16 -94 30
-109 30 -14 0 -61 -24 -107 -55 -46 -30 -88 -55 -94 -55 -8 0 -9 26 -4 94 4
52 4 104 0 115 -3 11 -42 48 -86 82 -43 34 -79 65 -79 69 0 3 47 21 104 38
l104 32 33 98 c17 53 34 100 36 105 8 13 21 -2 74 -81z"/>
<path d="M17688 6313 l-268 -145 -271 141 c-149 78 -278 141 -288 141 -27 0
-41 -21 -41 -61 0 -20 20 -153 45 -295 25 -142 45 -269 45 -284 0 -20 -45 -70
-213 -238 -117 -117 -218 -212 -225 -212 -17 0 -15 -45 3 -60 8 -6 148 -32
312 -57 164 -25 303 -51 310 -57 7 -6 73 -133 146 -282 79 -159 142 -274 152
-278 10 -3 26 -1 37 6 10 7 75 130 144 273 70 143 134 267 143 276 11 12 101
29 316 62 315 48 325 52 325 101 0 14 -74 95 -215 236 -118 118 -215 222 -215
230 0 8 23 149 51 313 49 286 50 299 34 318 -10 10 -28 19 -39 18 -12 0 -141
-66 -288 -146z m-511 -149 c174 -90 231 -115 251 -111 15 3 122 56 238 116
116 61 217 111 224 111 8 0 10 -8 7 -22 -22 -91 -87 -482 -83 -496 3 -10 88
-96 187 -192 152 -145 179 -175 163 -181 -11 -4 -127 -22 -259 -39 -132 -18
-244 -36 -250 -40 -5 -5 -62 -112 -125 -239 -63 -127 -117 -231 -120 -231 -3
0 -56 101 -117 225 -73 144 -121 230 -137 240 -15 10 -110 28 -262 48 -131 18
-239 38 -241 43 -2 6 80 89 182 184 127 119 185 180 185 194 0 19 -72 430 -85
484 -3 13 -1 22 6 22 6 0 112 -52 236 -116z"/>
<path d="M12343 6078 c-12 -14 -44 -103 -78 -215 -32 -105 -61 -196 -65 -202
-3 -6 -96 -39 -206 -72 -109 -34 -207 -65 -217 -71 -13 -7 -17 -19 -15 -46 3
-35 11 -43 148 -145 80 -59 160 -119 179 -134 l34 -26 -8 -216 c-6 -202 -5
-217 12 -232 26 -23 45 -28 68 -16 11 5 94 64 184 131 l165 120 211 -72 c122
-42 219 -70 229 -66 44 17 41 37 -35 258 l-73 212 137 178 c75 99 137 186 137
196 0 9 -9 26 -20 38 -20 21 -27 22 -240 22 l-219 0 -116 173 c-64 94 -126
180 -137 190 -27 23 -50 22 -75 -5z m158 -295 c127 -181 94 -163 295 -163 95
0 175 -4 178 -9 3 -5 -37 -65 -90 -135 -52 -69 -99 -138 -104 -151 -8 -20 1
-58 40 -182 27 -87 46 -161 42 -164 -4 -4 -74 17 -157 47 -82 30 -159 54 -170
54 -11 0 -81 -45 -155 -100 -74 -55 -138 -99 -143 -97 -5 1 -8 82 -7 178 l1
176 -138 104 c-76 57 -137 109 -135 114 2 6 74 32 160 58 86 27 163 54 170 59
7 6 35 82 63 169 28 88 55 159 59 159 5 0 46 -53 91 -117z"/>
<path d="M5778 5868 c-8 -7 -32 -44 -52 -83 -21 -38 -44 -75 -53 -82 -8 -6
-48 -15 -89 -18 -82 -8 -124 -31 -124 -68 0 -15 24 -44 70 -87 l70 -65 -10
-60 c-13 -81 -13 -148 2 -163 20 -20 45 -14 130 32 l82 45 87 -47 c78 -42 89
-45 113 -34 22 10 26 18 26 54 0 24 -5 72 -11 108 l-10 65 70 66 c42 38 71 74
71 85 0 41 -22 55 -105 65 -44 6 -89 14 -101 18 -11 5 -35 37 -53 72 -53 101
-79 123 -113 97z m62 -218 c13 -32 55 -60 89 -60 33 0 35 -20 6 -50 -25 -26
-27 -34 -23 -79 3 -28 1 -51 -3 -51 -5 0 -24 8 -44 17 -31 15 -40 15 -68 4
-72 -29 -71 -29 -65 23 5 43 3 52 -24 82 -31 35 -30 54 3 54 32 0 55 17 78 55
25 43 35 44 51 5z"/>
<path d="M3420 5173 c-13 -24 -170 -343 -225 -459 l-44 -92 -63 -10 c-35 -6
-171 -27 -303 -47 -197 -30 -244 -41 -262 -58 -13 -11 -23 -27 -23 -36 0 -8
99 -115 221 -237 l221 -221 -51 -295 c-28 -162 -51 -303 -51 -315 0 -21 29
-53 47 -53 6 0 131 65 278 145 147 80 274 145 282 145 8 0 126 -58 262 -130
137 -71 260 -134 273 -139 34 -13 68 11 68 47 0 15 -23 158 -50 317 l-50 289
207 209 c115 115 218 213 231 218 26 10 29 40 5 61 -12 10 -112 30 -298 58
-154 23 -291 45 -305 49 -20 6 -50 57 -165 287 -128 254 -142 279 -167 282
-18 2 -31 -3 -38 -15z m157 -428 c71 -141 121 -229 135 -238 13 -8 100 -24
193 -36 268 -35 315 -43 315 -51 0 -5 -82 -86 -182 -180 -101 -95 -186 -177
-190 -184 -3 -6 -1 -41 7 -76 32 -162 78 -440 73 -445 -3 -3 -105 46 -225 110
-147 76 -231 115 -252 115 -21 0 -105 -39 -252 -116 -121 -64 -223 -114 -225
-111 -3 3 15 119 40 257 33 177 43 256 37 269 -6 10 -89 93 -186 186 -96 92
-175 171 -175 175 0 4 109 22 243 39 133 18 252 37 264 42 16 6 55 72 138 239
63 126 118 230 123 230 4 0 58 -101 119 -225z"/>
<path d="M8505 4995 c-93 -69 -178 -125 -189 -125 -10 0 -106 30 -212 66 -204
70 -239 74 -249 31 -4 -13 21 -102 65 -231 l71 -208 -63 -82 c-34 -44 -95
-123 -135 -175 -41 -53 -73 -104 -73 -117 0 -12 12 -32 26 -43 25 -20 39 -21
240 -21 l213 0 126 -185 c121 -178 127 -185 159 -185 19 0 38 6 44 13 6 6 38
102 72 212 33 110 66 205 73 212 7 6 102 39 211 72 110 34 205 66 213 72 7 6
13 26 13 43 0 30 -12 41 -181 166 l-182 134 5 213 c5 201 5 215 -14 238 -11
14 -29 25 -41 25 -12 0 -98 -57 -192 -125z m132 -229 c-5 -157 -4 -175 12
-192 9 -11 74 -62 144 -114 70 -52 123 -98 118 -103 -4 -4 -79 -30 -166 -57
-88 -28 -163 -54 -168 -59 -5 -5 -32 -78 -59 -163 -28 -84 -54 -157 -58 -161
-4 -5 -49 50 -99 122 -51 72 -102 137 -114 146 -17 12 -55 15 -189 15 -93 0
-168 4 -168 8 0 5 45 69 100 142 72 96 100 141 100 162 0 16 -21 94 -47 173
-26 80 -44 148 -40 151 4 4 79 -19 167 -50 188 -66 156 -72 335 63 66 50 124
91 129 91 5 0 7 -72 3 -174z"/>
<path d="M15147 4542 l-79 -45 -88 43 c-93 45 -133 49 -143 11 -2 -10 0 -60 6
-111 l11 -92 -67 -65 c-66 -64 -78 -90 -58 -122 5 -8 49 -21 107 -30 l99 -16
32 -55 c65 -113 67 -115 98 -115 27 0 34 8 77 85 52 93 46 90 171 105 62 7 97
30 97 64 0 11 -30 46 -70 83 l-70 63 12 104 c12 103 12 104 -11 122 -13 11
-28 19 -35 18 -6 -1 -46 -21 -89 -47z m-61 -154 c23 12 45 18 48 15 3 -4 4
-27 0 -52 -5 -42 -3 -49 25 -75 17 -17 31 -33 31 -37 0 -4 -19 -12 -42 -16
-36 -7 -47 -15 -66 -51 -13 -23 -27 -42 -32 -42 -4 0 -13 14 -20 31 -16 37
-42 55 -92 64 -21 4 -38 10 -38 14 0 4 14 20 31 37 28 26 30 33 26 75 -3 26
-3 49 0 53 3 3 24 -4 46 -16 l41 -20 42 20z"/>
<path d="M20394 3640 c-70 -49 -132 -90 -137 -90 -5 0 -68 23 -141 50 -73 28
-142 50 -154 50 -12 0 -28 -10 -37 -23 -14 -21 -12 -34 25 -158 22 -74 40
-143 40 -154 0 -11 -40 -70 -90 -132 -96 -120 -109 -147 -86 -178 13 -18 28
-20 170 -23 l156 -4 81 -119 c94 -139 103 -149 131 -149 38 0 56 30 103 171
l46 138 52 15 c29 8 95 27 147 41 107 31 130 46 130 86 0 23 -18 40 -125 120
l-124 93 6 156 6 156 -28 22 c-15 12 -31 22 -35 22 -4 0 -65 -40 -136 -90z
m79 -179 c-3 -49 -3 -99 0 -113 4 -15 39 -49 88 -87 44 -35 77 -67 72 -71 -4
-4 -44 -18 -88 -30 -81 -22 -125 -43 -125 -60 0 -19 -62 -180 -70 -180 -4 0
-31 36 -60 80 -29 45 -61 85 -71 90 -10 6 -63 10 -118 10 -56 0 -101 4 -101 9
0 6 25 44 55 86 34 48 55 87 55 104 0 14 -11 64 -25 111 -13 46 -22 87 -19 89
3 3 49 -9 102 -27 53 -18 102 -32 107 -32 6 0 50 27 99 60 49 32 93 57 97 54
4 -2 5 -44 2 -93z"/>
<path d="M487 3079 c-10 -6 -46 -67 -79 -136 -32 -68 -65 -126 -72 -129 -7 -3
-75 -15 -151 -28 -142 -24 -165 -35 -165 -77 0 -9 50 -66 110 -126 l110 -108
-25 -149 c-23 -139 -24 -151 -8 -168 9 -10 24 -18 35 -18 10 0 78 30 150 66
l132 66 135 -66 c75 -37 143 -66 152 -66 9 0 24 9 33 19 17 19 17 26 -8 168
l-25 148 110 105 c152 145 149 175 -16 199 -44 7 -108 17 -143 23 l-63 10 -64
129 c-73 145 -97 167 -148 138z m86 -262 c53 -104 67 -115 168 -128 46 -5 90
-12 98 -15 10 -3 -9 -28 -59 -79 l-74 -75 16 -102 c9 -56 15 -105 12 -109 -2
-4 -51 15 -108 42 l-103 49 -82 -45 c-45 -25 -86 -45 -91 -45 -14 0 -12 37 5
120 10 48 12 77 5 89 -5 10 -41 46 -80 81 -38 34 -70 65 -70 70 0 4 43 12 96
18 53 6 102 17 111 23 8 7 31 45 50 83 37 74 51 96 62 96 3 0 23 -33 44 -73z"/>
<path d="M14135 2715 c-60 -52 -114 -95 -119 -95 -6 0 -70 16 -143 35 -74 20
-143 33 -154 30 -11 -4 -27 -17 -35 -31 -16 -23 -14 -30 46 -168 l63 -144 -72
-116 c-40 -63 -76 -118 -82 -121 -14 -9 -11 -61 5 -74 10 -9 42 -9 122 -1 60
5 130 10 156 10 l46 0 83 -97 c103 -123 115 -133 150 -133 37 0 41 10 80 166
17 71 39 136 48 145 9 8 71 37 139 63 195 76 197 104 13 218 -64 39 -119 75
-122 80 -3 5 -12 75 -18 156 -7 81 -17 152 -23 159 -6 7 -25 13 -42 12 -24 0
-54 -20 -141 -94z m88 -201 c6 -111 9 -115 108 -174 37 -22 70 -44 73 -49 3
-5 -37 -25 -89 -46 -52 -20 -98 -41 -101 -47 -4 -6 -16 -54 -28 -106 -12 -52
-26 -97 -31 -98 -6 -2 -41 35 -80 82 l-70 85 -102 -7 c-57 -3 -103 -4 -103 -1
0 3 25 45 55 93 30 49 55 94 55 100 0 7 -16 49 -35 93 -19 43 -35 84 -35 90 0
15 16 14 113 -9 100 -24 108 -22 192 48 33 28 62 49 66 46 3 -2 9 -47 12 -100z"/>
<path d="M5872 2583 c-8 -3 -127 -108 -265 -234 -161 -147 -260 -229 -273
-229 -12 0 -162 32 -333 70 -172 39 -323 70 -335 70 -13 0 -28 -6 -34 -12 -29
-37 -23 -56 109 -339 72 -156 137 -298 144 -315 14 -30 11 -35 -161 -328 -95
-164 -174 -306 -174 -316 0 -42 25 -42 381 0 331 40 343 41 360 23 10 -10 112
-126 226 -258 115 -131 221 -246 236 -255 27 -14 29 -14 51 11 22 25 34 77
138 583 l23 109 324 136 c346 145 361 154 329 203 -9 13 -143 94 -303 183
-158 88 -294 165 -302 170 -10 8 -21 97 -43 351 -29 336 -34 374 -50 374 -5 0
-14 2 -22 4 -7 3 -19 2 -26 -1z m-27 -468 c14 -154 31 -291 38 -303 8 -15 105
-78 266 -170 139 -81 254 -152 254 -157 1 -11 -498 -233 -525 -234 -9 -1 -19
-5 -23 -10 -4 -7 -115 -562 -115 -578 0 -16 -40 26 -205 216 -104 121 -200
224 -212 230 -17 8 -90 1 -305 -29 -156 -22 -286 -40 -290 -40 -18 0 0 37 137
275 80 138 145 258 145 265 0 8 -57 135 -126 282 -70 148 -124 272 -121 275 4
3 37 -2 74 -10 37 -9 166 -39 285 -66 119 -28 223 -51 231 -51 13 0 130 103
371 328 43 40 82 70 87 65 4 -4 19 -134 34 -288z"/>
<path d="M11810 2125 c-55 -82 -55 -82 -174 -88 -62 -3 -82 -8 -93 -23 -22
-30 -15 -49 47 -123 33 -40 60 -75 60 -79 0 -4 -12 -45 -25 -92 -40 -136 -21
-153 120 -107 l92 30 72 -46 c78 -51 109 -57 136 -27 15 16 17 34 14 116 l-4
97 70 42 c74 43 99 80 79 113 -6 9 -44 27 -85 40 -118 37 -113 33 -143 119
-34 96 -40 103 -82 103 -30 0 -38 -7 -84 -75z m80 -168 c13 -36 21 -43 59 -54
24 -7 46 -15 49 -17 2 -3 -7 -25 -22 -50 -15 -25 -26 -60 -26 -80 0 -19 -4
-37 -8 -40 -5 -3 -25 6 -45 19 -41 28 -57 30 -104 13 -41 -15 -48 -8 -34 35
13 39 -1 90 -32 116 -28 22 -20 31 28 31 39 0 47 4 76 40 18 22 35 37 38 34 3
-3 13 -24 21 -47z"/>
<path d="M8128 1970 c-9 -6 -31 -50 -48 -99 l-32 -89 -77 -17 c-107 -23 -106
-23 -120 -49 -20 -36 -12 -50 64 -114 l70 -58 -3 -101 c-3 -92 -2 -103 17
-122 12 -12 29 -21 38 -21 9 0 52 23 95 52 l79 51 85 -37 c47 -20 93 -36 101
-34 9 2 25 15 35 29 20 26 20 27 -1 103 -12 42 -21 83 -21 92 0 9 25 43 55 77
55 61 69 100 46 136 -10 16 -77 30 -149 31 -60 0 -61 1 -125 105 -44 72 -70
88 -109 65z m161 -270 c44 0 51 -9 24 -31 -28 -24 -44 -75 -33 -104 6 -15 10
-35 10 -46 0 -18 -2 -19 -36 -4 -49 20 -84 19 -114 -5 -36 -28 -40 -25 -40 23
0 36 -6 49 -35 77 -19 19 -35 37 -35 41 0 4 17 13 38 19 47 16 70 36 88 79
l15 35 38 -42 c33 -36 44 -42 80 -42z"/>
<path d="M16938 1968 c-9 -7 -51 -106 -93 -220 l-76 -206 -217 -53 c-119 -29
-223 -57 -229 -62 -24 -18 -14 -54 25 -88 21 -19 100 -83 175 -142 l137 -108
-1 -82 c0 -45 -4 -143 -8 -217 -15 -235 -3 -238 248 -68 l181 122 206 -83
c217 -88 248 -93 260 -47 3 14 -16 102 -50 223 -31 110 -56 208 -56 219 0 10
63 95 140 188 108 129 140 175 140 197 0 17 -7 32 -17 37 -10 5 -114 12 -232
16 -118 4 -218 9 -222 11 -4 3 -58 84 -120 181 -121 189 -148 215 -191 182z
m137 -318 c50 -77 97 -143 105 -146 8 -4 89 -9 180 -11 91 -3 168 -8 172 -12
4 -3 -42 -66 -102 -139 -73 -89 -110 -142 -110 -158 0 -13 18 -89 40 -169 38
-138 46 -175 35 -175 -2 0 -73 27 -157 60 -84 33 -164 60 -178 60 -16 0 -79
-36 -165 -96 -111 -75 -141 -92 -144 -78 -1 10 2 89 8 176 6 88 9 164 5 170
-4 5 -63 55 -133 110 -69 55 -126 105 -126 112 0 6 75 31 167 56 92 25 172 50
176 55 5 6 31 71 57 145 27 74 52 145 56 158 5 12 12 22 16 22 5 0 49 -63 98
-140z"/>
<path d="M2525 645 l-80 -43 -93 41 -94 40 -26 -26 -26 -26 18 -96 18 -95 -52
-57 c-80 -88 -86 -98 -66 -128 18 -27 24 -29 136 -45 41 -6 75 -12 76 -13 1
-1 19 -33 40 -72 47 -88 62 -105 89 -105 28 0 34 8 75 102 18 43 34 78 36 78
4 0 142 28 171 35 29 7 57 59 44 83 -5 9 -37 44 -71 77 l-63 59 12 94 c10 82
9 98 -4 118 -21 33 -46 29 -140 -21z m8 -181 c-6 -43 -4 -48 32 -84 l38 -39
-29 -6 c-70 -14 -79 -20 -94 -63 -8 -23 -18 -42 -22 -42 -4 0 -14 13 -23 29
-22 43 -62 71 -102 71 l-35 0 32 36 c29 34 31 40 25 87 -8 55 -10 55 63 25 30
-12 37 -11 70 9 20 12 40 22 44 23 4 0 5 -21 1 -46z"/>
</g>
</svg>
